<?xml version="1.0" encoding="UTF-8" standalone="no"?><!-- Generator: Gravit.io --><svg xmlns="http://www.w3.org/2000/svg" xmlns:xlink="http://www.w3.org/1999/xlink" style="isolation:isolate" viewBox="0 0 300 52" width="300pt" height="52pt"><defs><clipPath id="_clipPath_a4epZG51v5ou7ynhMeOVIePVHrnqN3Sr"><rect width="300" height="52"/></clipPath></defs><g clip-path="url(#_clipPath_a4epZG51v5ou7ynhMeOVIePVHrnqN3Sr)"><path d=" M 194.443 9.006 C 194.403 9.056 194.354 9.086 194.294 9.106 C 194.025 9.196 193.756 9.236 193.477 9.236 L 190.08 9.236 L 177.267 45.202 C 177.158 45.5 176.998 45.779 176.809 46.029 C 176.679 46.188 176.53 46.327 176.351 46.427 C 176.151 46.547 175.932 46.636 175.713 46.686 C 175.285 46.776 174.856 46.816 174.428 46.816 C 174.009 46.816 173.591 46.776 173.183 46.676 C 172.953 46.626 172.744 46.537 172.545 46.417 C 172.366 46.307 172.206 46.168 172.077 45.999 C 171.897 45.76 171.748 45.491 171.648 45.212 C 171.648 45.212 171.648 45.212 171.648 45.212 L 158.946 9.236 L 155.578 9.236 C 155.439 9.236 155.289 9.226 155.15 9.206 C 155.06 9.196 154.97 9.186 154.891 9.156 C 154.821 9.136 154.741 9.106 154.681 9.066 C 154.652 9.046 154.632 9.036 154.612 9.006 C 154.552 8.957 154.522 8.887 154.502 8.817 C 154.412 8.498 154.373 8.18 154.373 7.851 C 154.373 7.522 154.412 7.203 154.502 6.884 C 154.522 6.815 154.552 6.745 154.612 6.695 C 154.652 6.645 154.711 6.615 154.771 6.595 C 155.03 6.506 155.299 6.466 155.578 6.466 L 168.679 6.466 C 168.829 6.466 168.968 6.476 169.118 6.496 C 169.197 6.506 169.287 6.526 169.367 6.546 C 169.446 6.566 169.516 6.595 169.576 6.635 C 169.606 6.655 169.626 6.675 169.646 6.695 C 169.705 6.745 169.735 6.815 169.755 6.884 C 169.845 7.203 169.885 7.522 169.885 7.851 C 169.885 8.18 169.845 8.498 169.755 8.817 C 169.735 8.887 169.705 8.957 169.646 9.006 C 169.606 9.056 169.556 9.086 169.486 9.106 C 169.227 9.196 168.958 9.236 168.679 9.236 L 162.343 9.236 L 174.458 44.225 L 186.682 9.236 L 181.78 9.236 C 181.631 9.236 181.492 9.226 181.342 9.206 C 181.262 9.196 181.173 9.186 181.093 9.156 C 181.013 9.136 180.944 9.106 180.874 9.066 C 180.854 9.046 180.824 9.036 180.804 9.006 C 180.754 8.957 180.714 8.887 180.695 8.817 C 180.615 8.498 180.565 8.18 180.565 7.851 C 180.565 7.522 180.615 7.203 180.695 6.884 C 180.714 6.815 180.754 6.745 180.804 6.695 C 180.854 6.645 180.904 6.615 180.964 6.595 C 181.233 6.506 181.502 6.466 181.78 6.466 L 193.477 6.466 C 193.626 6.466 193.766 6.476 193.915 6.496 C 193.995 6.506 194.085 6.526 194.164 6.546 C 194.244 6.566 194.314 6.595 194.374 6.635 C 194.403 6.655 194.423 6.675 194.443 6.695 C 194.503 6.745 194.533 6.815 194.553 6.884 C 194.643 7.203 194.692 7.522 194.692 7.851 C 194.692 8.18 194.643 8.498 194.553 8.817 C 194.533 8.887 194.503 8.957 194.443 9.006 Z " fill="rgb(0,0,0)"/><path d=" M 200.072 6.695 C 200.112 6.645 200.172 6.615 200.232 6.595 C 200.491 6.506 200.77 6.466 201.039 6.466 L 231.655 6.466 C 231.804 6.466 231.944 6.476 232.093 6.496 C 232.173 6.506 232.262 6.526 232.342 6.546 C 232.422 6.566 232.492 6.595 232.551 6.635 C 232.581 6.655 232.601 6.675 232.631 6.695 C 232.681 6.745 232.711 6.815 232.731 6.884 C 232.82 7.203 232.87 7.522 232.87 7.851 L 232.87 16.748 C 232.87 16.897 232.86 17.047 232.83 17.196 C 232.82 17.286 232.8 17.375 232.78 17.455 C 232.751 17.535 232.721 17.604 232.681 17.664 C 232.661 17.694 232.631 17.724 232.611 17.754 C 232.531 17.814 232.452 17.863 232.352 17.883 C 231.993 17.983 231.615 18.033 231.236 18.033 C 230.858 18.033 230.479 17.983 230.11 17.883 C 230.021 17.863 229.931 17.814 229.861 17.754 C 229.831 17.724 229.812 17.704 229.792 17.664 C 229.752 17.604 229.722 17.535 229.702 17.465 C 229.672 17.385 229.652 17.296 229.632 17.206 C 229.612 17.056 229.602 16.897 229.602 16.748 L 229.602 9.236 L 208.87 9.236 L 208.87 24.22 L 219.898 24.22 L 219.898 20.035 C 219.898 19.746 219.948 19.458 220.028 19.179 C 220.048 19.119 220.088 19.049 220.138 19.009 C 220.167 18.979 220.187 18.969 220.217 18.949 C 220.307 18.91 220.407 18.87 220.506 18.85 C 220.616 18.82 220.735 18.8 220.845 18.79 C 221.024 18.77 221.214 18.76 221.393 18.76 C 221.562 18.76 221.742 18.77 221.911 18.78 C 222.021 18.8 222.13 18.81 222.24 18.84 C 222.359 18.86 222.469 18.9 222.569 18.949 C 222.598 18.969 222.618 18.979 222.648 19.009 C 222.698 19.049 222.728 19.119 222.758 19.179 C 222.837 19.458 222.887 19.746 222.887 20.035 L 222.887 31.174 C 222.887 31.473 222.837 31.762 222.758 32.031 C 222.728 32.1 222.698 32.16 222.648 32.21 C 222.618 32.23 222.598 32.25 222.569 32.26 C 222.479 32.31 222.379 32.349 222.28 32.369 C 222.17 32.399 222.05 32.419 221.941 32.429 C 221.762 32.449 221.572 32.459 221.393 32.459 C 221.224 32.459 221.044 32.449 220.875 32.429 C 220.765 32.419 220.656 32.409 220.546 32.379 C 220.426 32.359 220.317 32.32 220.217 32.27 C 220.187 32.25 220.167 32.24 220.138 32.21 C 220.088 32.16 220.048 32.1 220.028 32.031 C 219.948 31.762 219.898 31.473 219.898 31.174 L 219.898 26.999 L 208.87 26.999 L 208.87 43.279 L 230.31 43.279 L 230.31 34.262 C 230.31 34.113 230.32 33.963 230.34 33.814 C 230.35 33.724 230.369 33.635 230.399 33.545 C 230.419 33.475 230.449 33.406 230.489 33.346 C 230.509 33.306 230.539 33.276 230.559 33.256 C 230.638 33.196 230.718 33.146 230.818 33.127 C 231.176 33.027 231.555 32.977 231.934 32.977 C 232.312 32.977 232.691 33.027 233.059 33.127 C 233.149 33.146 233.239 33.196 233.308 33.256 C 233.338 33.276 233.358 33.306 233.378 33.336 C 233.418 33.406 233.448 33.465 233.478 33.535 C 233.498 33.625 233.518 33.714 233.538 33.804 C 233.558 33.953 233.568 34.103 233.568 34.262 L 233.568 44.664 C 233.568 44.992 233.518 45.311 233.438 45.63 C 233.418 45.7 233.378 45.769 233.328 45.819 C 233.279 45.869 233.229 45.899 233.169 45.919 C 232.91 46.009 232.631 46.048 232.352 46.048 L 201.039 46.048 C 200.899 46.048 200.75 46.038 200.61 46.019 C 200.521 46.009 200.441 45.989 200.351 45.969 C 200.282 45.949 200.212 45.919 200.142 45.879 C 200.112 45.859 200.092 45.839 200.072 45.819 C 200.023 45.769 199.983 45.7 199.963 45.63 C 199.873 45.311 199.833 44.992 199.833 44.664 C 199.833 44.335 199.873 44.016 199.963 43.697 C 199.983 43.627 200.023 43.558 200.072 43.508 C 200.112 43.458 200.172 43.428 200.232 43.408 C 200.491 43.319 200.77 43.279 201.039 43.279 L 205.612 43.279 L 205.612 9.236 L 201.039 9.236 C 200.899 9.236 200.75 9.226 200.61 9.206 C 200.521 9.196 200.441 9.186 200.351 9.156 C 200.282 9.136 200.212 9.106 200.142 9.066 C 200.112 9.046 200.092 9.036 200.072 9.006 C 200.023 8.957 199.983 8.887 199.963 8.817 C 199.873 8.498 199.833 8.18 199.833 7.851 C 199.833 7.522 199.873 7.203 199.963 6.884 C 199.983 6.815 200.023 6.745 200.072 6.695 Z " fill="rgb(0,0,0)"/><path d=" M 144.458 0.445 C 144.508 0.519 144.545 0.606 144.582 0.692 C 144.619 0.791 144.644 0.902 144.656 1.013 C 144.681 1.199 144.693 1.396 144.693 1.582 L 144.693 11.579 C 144.693 11.764 144.681 11.95 144.656 12.135 C 144.644 12.246 144.619 12.358 144.582 12.456 C 144.557 12.555 144.508 12.63 144.458 12.716 C 144.434 12.753 144.409 12.79 144.372 12.827 C 144.285 12.901 144.174 12.963 144.063 12.988 C 143.606 13.099 143.136 13.161 142.667 13.161 C 142.469 13.161 142.271 13.149 142.086 13.099 C 141.987 13.074 141.888 13.05 141.801 13 C 141.74 12.963 141.69 12.926 141.641 12.877 C 141.579 12.815 141.542 12.753 141.505 12.691 C 141.122 11.975 140.702 11.295 140.232 10.64 C 139.787 10.022 139.293 9.441 138.761 8.898 C 138.23 8.366 137.662 7.859 137.068 7.415 C 136.451 6.957 135.808 6.537 135.141 6.166 C 133.806 5.437 132.385 4.894 130.914 4.535 C 129.283 4.152 127.615 3.954 125.947 3.954 C 125.032 3.954 124.118 4.016 123.216 4.152 C 122.462 4.251 121.733 4.424 121.016 4.659 C 120.398 4.869 119.805 5.128 119.224 5.437 C 118.705 5.734 118.198 6.068 117.741 6.463 C 117.247 6.871 116.802 7.34 116.419 7.847 C 116.036 8.341 115.727 8.873 115.467 9.429 C 115.208 10.01 115.01 10.615 114.887 11.245 C 114.738 11.937 114.676 12.654 114.676 13.359 C 114.676 14.051 114.775 14.743 114.973 15.41 C 115.158 16.015 115.455 16.584 115.838 17.091 C 116.196 17.573 116.617 18.017 117.086 18.388 C 117.642 18.833 118.235 19.216 118.866 19.537 C 119.409 19.822 119.99 20.069 120.571 20.279 C 121.263 20.526 121.98 20.748 122.697 20.921 C 123.389 21.095 124.081 21.255 124.785 21.391 C 125.934 21.638 127.084 21.873 128.233 22.083 C 129.469 22.33 130.704 22.577 131.94 22.837 C 132.669 22.998 133.398 23.146 134.115 23.319 C 134.819 23.48 135.511 23.665 136.191 23.875 C 136.883 24.097 137.575 24.345 138.255 24.629 C 139.577 25.173 140.825 25.865 141.987 26.717 C 142.951 27.422 143.803 28.262 144.533 29.201 C 144.866 29.634 145.163 30.103 145.41 30.585 C 145.682 31.129 145.917 31.71 146.09 32.291 C 146.3 32.97 146.46 33.675 146.559 34.379 C 146.67 35.269 146.732 36.171 146.732 37.073 C 146.732 38.445 146.559 39.792 146.201 41.114 C 145.892 42.251 145.422 43.351 144.792 44.352 C 144.483 44.846 144.137 45.315 143.766 45.76 C 143.371 46.205 142.951 46.638 142.506 47.021 C 142.012 47.441 141.505 47.824 140.961 48.17 C 140.343 48.553 139.701 48.899 139.046 49.208 C 137.773 49.789 136.438 50.221 135.067 50.481 C 133.262 50.827 131.433 51 129.592 51 C 128.245 51 126.898 50.876 125.576 50.617 C 124.353 50.37 123.166 50.011 122.017 49.517 C 120.88 49.035 119.805 48.43 118.804 47.701 C 117.778 46.971 116.839 46.131 115.999 45.204 C 115.665 44.821 115.121 44.685 114.639 44.871 C 114.17 45.056 113.849 45.513 113.849 46.032 L 113.849 49.418 C 113.849 49.604 113.836 49.789 113.811 49.974 C 113.799 50.086 113.774 50.197 113.737 50.296 C 113.713 50.394 113.663 50.481 113.614 50.555 C 113.589 50.592 113.564 50.629 113.527 50.666 C 113.441 50.74 113.329 50.802 113.218 50.827 C 112.761 50.951 112.291 51 111.822 51 C 111.352 51 110.883 50.951 110.438 50.827 C 110.314 50.802 110.215 50.74 110.116 50.666 C 110.092 50.629 110.055 50.592 110.03 50.555 C 109.981 50.481 109.943 50.394 109.919 50.308 C 109.882 50.209 109.857 50.098 109.845 49.987 C 109.82 49.801 109.808 49.604 109.808 49.418 L 109.808 36.381 C 109.808 36.196 109.82 36.01 109.845 35.825 C 109.857 35.714 109.882 35.602 109.919 35.504 C 109.943 35.405 109.981 35.318 110.03 35.244 C 110.055 35.207 110.092 35.17 110.116 35.133 C 110.215 35.059 110.314 34.997 110.438 34.972 C 110.883 34.849 111.352 34.799 111.822 34.799 C 112.007 34.799 112.193 34.824 112.366 34.873 C 112.477 34.898 112.576 34.947 112.662 35.009 C 112.749 35.083 112.835 35.158 112.897 35.256 C 113.021 35.417 113.107 35.602 113.181 35.8 C 113.502 36.715 113.886 37.604 114.343 38.457 C 114.751 39.236 115.22 39.989 115.752 40.694 C 116.246 41.361 116.802 41.991 117.395 42.56 C 117.988 43.141 118.631 43.66 119.311 44.129 C 119.978 44.599 120.682 45.007 121.424 45.353 C 122.178 45.711 122.968 46.02 123.784 46.255 C 124.661 46.514 125.564 46.712 126.478 46.835 C 127.516 46.971 128.554 47.046 129.592 47.046 C 130.643 47.046 131.681 46.971 132.719 46.835 C 133.559 46.724 134.387 46.551 135.19 46.304 C 135.895 46.082 136.587 45.81 137.242 45.464 C 137.822 45.167 138.391 44.796 138.91 44.389 C 139.454 43.944 139.96 43.437 140.405 42.881 C 140.825 42.362 141.184 41.794 141.468 41.2 C 141.752 40.582 141.974 39.94 142.11 39.285 C 142.271 38.556 142.345 37.814 142.345 37.073 C 142.345 36.072 142.197 35.071 141.9 34.119 C 141.641 33.291 141.245 32.525 140.702 31.858 C 140.183 31.203 139.577 30.635 138.91 30.14 C 138.082 29.559 137.192 29.053 136.265 28.645 C 135.672 28.386 135.079 28.151 134.473 27.953 C 133.806 27.731 133.126 27.545 132.434 27.385 C 131.779 27.224 131.124 27.076 130.457 26.94 C 129.32 26.693 128.196 26.458 127.059 26.223 C 125.872 25.988 124.699 25.753 123.525 25.494 C 122.721 25.321 121.93 25.135 121.14 24.925 C 120.373 24.74 119.607 24.518 118.866 24.258 C 118.198 24.023 117.531 23.764 116.888 23.48 C 115.85 23.01 114.862 22.417 113.96 21.712 C 113.206 21.119 112.539 20.427 111.982 19.649 C 111.439 18.907 111.043 18.079 110.796 17.189 C 110.45 15.941 110.277 14.656 110.277 13.359 C 110.277 12.012 110.462 10.677 110.821 9.379 C 111.13 8.28 111.599 7.217 112.23 6.253 C 112.86 5.289 113.638 4.412 114.516 3.658 C 115.48 2.842 116.555 2.163 117.704 1.644 C 118.878 1.1 120.114 0.704 121.387 0.445 C 122.882 0.148 124.414 0 125.947 0 C 127.121 0 128.295 0.111 129.456 0.346 C 130.618 0.581 131.755 0.927 132.855 1.384 C 133.954 1.829 135.017 2.397 136.006 3.052 C 136.92 3.646 137.773 4.338 138.539 5.104 C 138.885 5.462 139.429 5.561 139.886 5.376 C 140.343 5.19 140.652 4.733 140.652 4.239 L 140.652 1.582 C 140.652 1.396 140.665 1.211 140.689 1.026 C 140.702 0.914 140.726 0.803 140.763 0.704 C 140.788 0.606 140.825 0.519 140.875 0.445 C 140.899 0.408 140.936 0.371 140.974 0.334 C 141.06 0.259 141.159 0.198 141.282 0.173 C 141.74 0.049 142.197 0 142.667 0 C 143.136 0 143.606 0.049 144.063 0.173 C 144.174 0.198 144.285 0.259 144.372 0.334 C 144.409 0.371 144.434 0.408 144.458 0.445 Z " fill="rgb(0,0,0)"/><path d=" M 81.379 10.233 L 81.379 10.233 Q 85.547 10.233 88.629 12.089 L 88.629 12.089 L 88.629 12.089 Q 91.712 13.945 93.393 17.536 L 93.393 17.536 L 93.393 17.536 Q 95.074 21.126 95.074 26.274 L 95.074 26.274 L 95.074 26.274 Q 95.074 31.423 93.393 35.013 L 93.393 35.013 L 93.393 35.013 Q 91.712 38.604 88.629 40.442 L 88.629 40.442 L 88.629 40.442 Q 85.547 42.281 81.379 42.281 L 81.379 42.281 L 74.864 42.281 L 74.864 10.233 L 81.379 10.233 Z  M 82.182 6.466 C 83.078 6.466 83.985 6.526 84.872 6.635 C 85.669 6.735 86.466 6.884 87.243 7.094 C 87.97 7.293 88.687 7.542 89.375 7.831 C 90.052 8.12 90.71 8.449 91.337 8.827 C 91.975 9.206 92.583 9.634 93.151 10.112 C 93.719 10.571 94.257 11.089 94.755 11.627 C 95.263 12.205 95.741 12.802 96.169 13.44 C 96.638 14.137 97.046 14.875 97.415 15.622 C 98.132 17.096 98.66 18.651 98.999 20.245 C 99.407 22.227 99.617 24.25 99.617 26.272 C 99.617 28.295 99.407 30.317 98.999 32.3 C 98.66 33.894 98.132 35.438 97.415 36.903 C 97.056 37.66 96.638 38.377 96.169 39.074 C 95.741 39.712 95.273 40.32 94.755 40.888 C 94.257 41.426 93.729 41.934 93.161 42.402 C 92.583 42.88 91.975 43.309 91.337 43.687 C 90.71 44.066 90.052 44.395 89.375 44.684 C 88.687 44.972 87.97 45.222 87.243 45.421 C 86.466 45.63 85.669 45.779 84.872 45.879 C 83.985 45.989 83.078 46.048 82.182 46.048 L 65.683 46.048 C 65.544 46.048 65.394 46.038 65.255 46.019 C 65.165 46.009 65.085 45.989 64.996 45.969 C 64.926 45.949 64.856 45.919 64.786 45.879 C 64.757 45.859 64.737 45.839 64.717 45.819 C 64.667 45.769 64.627 45.7 64.607 45.63 C 64.517 45.311 64.478 44.992 64.478 44.664 C 64.478 44.335 64.517 44.016 64.607 43.697 C 64.627 43.627 64.667 43.558 64.717 43.508 C 64.757 43.458 64.816 43.428 64.876 43.408 C 65.135 43.319 65.414 43.279 65.683 43.279 L 70.605 43.279 L 70.605 9.236 L 65.683 9.236 C 65.544 9.236 65.394 9.226 65.255 9.206 C 65.165 9.196 65.085 9.186 64.996 9.156 C 64.926 9.136 64.856 9.106 64.786 9.066 C 64.757 9.046 64.737 9.036 64.717 9.006 C 64.667 8.957 64.627 8.887 64.607 8.817 C 64.517 8.498 64.478 8.18 64.478 7.851 C 64.478 7.522 64.517 7.203 64.607 6.884 C 64.627 6.815 64.667 6.745 64.717 6.695 C 64.757 6.645 64.816 6.615 64.876 6.595 C 65.135 6.506 65.414 6.466 65.683 6.466 L 82.182 6.466 Z " fill-rule="evenodd" fill="rgb(0,0,0)"/><path d=" M 40.288 38.033 C 40.367 38.093 40.437 38.173 40.507 38.252 C 40.557 38.312 40.597 38.392 40.616 38.462 C 40.646 38.531 40.656 38.611 40.656 38.691 C 40.656 38.8 40.646 38.92 40.616 39.03 C 40.547 39.259 40.457 39.488 40.347 39.707 C 40.248 39.896 40.138 40.076 40.019 40.235 C 39.949 40.335 39.859 40.414 39.77 40.484 C 39.7 40.554 39.62 40.594 39.531 40.634 C 39.461 40.654 39.381 40.673 39.311 40.673 C 39.202 40.673 39.092 40.654 38.993 40.624 C 38.803 40.574 38.634 40.514 38.455 40.424 C 38.455 40.424 38.455 40.424 38.455 40.424 L 11.236 27.074 C 11.236 27.074 11.236 27.074 11.226 27.074 C 11.007 26.965 10.798 26.835 10.598 26.686 C 10.509 26.616 10.429 26.526 10.359 26.427 C 10.299 26.337 10.25 26.237 10.23 26.138 C 10.17 25.948 10.15 25.749 10.15 25.55 C 10.15 25.361 10.17 25.161 10.23 24.972 C 10.25 24.872 10.299 24.773 10.359 24.683 C 10.429 24.583 10.509 24.494 10.598 24.424 C 10.798 24.275 11.007 24.145 11.226 24.035 C 11.236 24.035 11.236 24.035 11.236 24.035 L 38.455 10.685 C 38.455 10.685 38.455 10.685 38.455 10.685 C 38.634 10.596 38.803 10.526 38.993 10.476 C 39.092 10.456 39.202 10.436 39.311 10.436 C 39.381 10.436 39.451 10.446 39.521 10.476 C 39.61 10.506 39.69 10.556 39.77 10.615 C 39.859 10.685 39.939 10.765 40.009 10.865 C 40.138 11.034 40.248 11.213 40.347 11.403 C 40.457 11.622 40.547 11.851 40.616 12.08 C 40.646 12.19 40.656 12.309 40.656 12.419 C 40.656 12.498 40.646 12.568 40.626 12.638 C 40.597 12.718 40.557 12.787 40.507 12.857 C 40.447 12.937 40.367 13.007 40.288 13.076 C 40.128 13.186 39.959 13.295 39.79 13.375 L 14.374 25.55 L 39.79 37.724 C 39.959 37.814 40.128 37.914 40.288 38.033 Z " fill="rgb(0,0,0)"/><path d=" M 288.951 24.035 C 289.18 24.145 289.39 24.275 289.579 24.424 C 289.678 24.494 289.758 24.583 289.828 24.683 C 289.888 24.773 289.928 24.872 289.957 24.972 C 290.007 25.161 290.037 25.361 290.037 25.55 C 290.037 25.749 290.007 25.948 289.957 26.138 C 289.928 26.237 289.888 26.337 289.828 26.427 C 289.758 26.526 289.678 26.616 289.579 26.686 C 289.39 26.835 289.18 26.965 288.951 27.074 C 288.951 27.074 288.951 27.074 288.951 27.074 L 261.733 40.424 C 261.733 40.424 261.723 40.424 261.723 40.424 C 261.553 40.514 261.374 40.574 261.195 40.624 C 261.085 40.654 260.985 40.673 260.876 40.673 C 260.796 40.673 260.726 40.654 260.657 40.634 C 260.567 40.604 260.487 40.554 260.417 40.494 C 260.328 40.424 260.248 40.335 260.178 40.245 C 260.049 40.076 259.929 39.896 259.84 39.707 C 259.73 39.488 259.64 39.259 259.571 39.03 C 259.541 38.92 259.521 38.8 259.521 38.691 C 259.521 38.611 259.541 38.541 259.561 38.462 C 259.591 38.392 259.63 38.312 259.68 38.252 C 259.74 38.173 259.82 38.093 259.899 38.033 C 260.059 37.914 260.218 37.814 260.398 37.724 L 285.803 25.55 L 260.398 13.375 C 260.218 13.295 260.059 13.186 259.899 13.076 C 259.82 13.007 259.74 12.937 259.68 12.857 C 259.63 12.787 259.591 12.718 259.561 12.648 C 259.541 12.568 259.521 12.498 259.521 12.419 C 259.521 12.309 259.541 12.19 259.571 12.08 C 259.64 11.851 259.73 11.622 259.84 11.403 C 259.929 11.213 260.039 11.034 260.168 10.865 C 260.238 10.775 260.318 10.695 260.408 10.615 C 260.487 10.556 260.567 10.506 260.657 10.476 C 260.726 10.456 260.796 10.436 260.876 10.436 C 260.985 10.436 261.085 10.456 261.195 10.476 C 261.374 10.526 261.553 10.596 261.723 10.685 C 261.723 10.685 261.733 10.685 261.733 10.685 L 288.951 24.035 C 288.951 24.035 288.951 24.035 288.951 24.035 Z " fill="rgb(0,0,0)"/><path d=" M 51.974 48.36 C 52.054 48.42 52.124 48.499 52.193 48.579 C 52.243 48.639 52.283 48.719 52.303 48.788 C 52.333 48.858 52.343 48.938 52.343 49.017 C 52.343 49.127 52.333 49.247 52.303 49.356 C 52.233 49.585 52.143 49.814 52.034 50.034 C 51.934 50.223 51.825 50.402 51.705 50.562 C 51.635 50.661 51.546 50.741 51.456 50.811 C 51.386 50.88 51.307 50.92 51.217 50.96 C 51.147 50.98 51.068 51 50.998 51 C 50.888 51 50.779 50.98 50.679 50.95 C 50.49 50.9 50.32 50.841 50.141 50.751 C 50.141 50.751 50.141 50.751 50.141 50.751 L 1.273 27.074 C 1.273 27.074 1.273 27.074 1.263 27.074 C 1.044 26.965 0.835 26.835 0.635 26.686 C 0.546 26.616 0.466 26.526 0.396 26.427 C 0.337 26.337 0.287 26.237 0.267 26.138 C 0.207 25.948 0.187 25.749 0.187 25.55 C 0.187 25.361 0.207 25.161 0.267 24.972 C 0.287 24.872 0.337 24.773 0.396 24.683 C 0.466 24.583 0.546 24.494 0.635 24.424 C 0.835 24.275 1.044 24.145 1.263 24.035 C 1.273 24.035 1.273 24.035 1.273 24.035 L 50.101 0.249 C 50.101 0.249 50.101 0.249 50.101 0.249 C 50.28 0.159 50.45 0.09 50.639 0.04 C 50.739 0.02 50.848 0 50.958 0 C 51.028 0 51.097 0.01 51.167 0.04 C 51.257 0.07 51.337 0.12 51.416 0.179 C 51.506 0.249 51.586 0.329 51.655 0.428 C 51.785 0.598 51.894 0.777 51.994 0.966 C 52.104 1.186 52.193 1.415 52.263 1.644 C 52.293 1.753 52.303 1.873 52.303 1.983 C 52.303 2.062 52.293 2.132 52.273 2.202 C 52.243 2.282 52.203 2.351 52.153 2.421 C 52.094 2.501 52.014 2.57 51.934 2.64 C 51.775 2.75 51.606 2.859 51.436 2.939 L 4.411 25.55 L 51.476 48.051 C 51.645 48.141 51.815 48.24 51.974 48.36 Z " fill="rgb(0,0,0)"/><path d=" M 50.998 0 L 142.89 0 L 142.89 6.884 L 126.428 2.939 L 50.101 2.939 L 50.998 0 Z " fill="rgb(0,0,0)"/><path d=" M 248.213 2.64 C 248.133 2.58 248.064 2.501 247.994 2.421 C 247.944 2.361 247.904 2.281 247.884 2.212 C 247.854 2.142 247.844 2.062 247.844 1.983 C 247.844 1.873 247.854 1.753 247.884 1.644 C 247.954 1.415 248.044 1.186 248.153 0.966 C 248.253 0.777 248.362 0.598 248.482 0.438 C 248.552 0.339 248.641 0.259 248.731 0.189 C 248.801 0.12 248.881 0.08 248.97 0.04 C 249.04 0.02 249.12 0 249.189 0 C 249.299 0 249.409 0.02 249.508 0.05 C 249.697 0.1 249.867 0.159 250.046 0.249 C 250.046 0.249 250.046 0.249 250.046 0.249 L 298.914 23.926 C 298.914 23.926 298.914 23.926 298.924 23.926 C 299.143 24.035 299.352 24.165 299.552 24.314 C 299.641 24.384 299.721 24.474 299.791 24.573 C 299.851 24.663 299.9 24.763 299.92 24.862 C 299.98 25.052 300 25.251 300 25.45 C 300 25.639 299.98 25.839 299.92 26.028 C 299.9 26.128 299.851 26.227 299.791 26.317 C 299.721 26.417 299.641 26.506 299.552 26.576 C 299.352 26.725 299.143 26.855 298.924 26.965 C 298.914 26.965 298.914 26.965 298.914 26.965 L 250.086 50.751 C 250.086 50.751 250.086 50.751 250.086 50.751 C 249.907 50.841 249.737 50.91 249.548 50.96 C 249.448 50.98 249.339 51 249.229 51 C 249.159 51 249.09 50.99 249.02 50.96 C 248.93 50.93 248.851 50.88 248.771 50.821 C 248.681 50.751 248.602 50.671 248.532 50.572 C 248.402 50.402 248.293 50.223 248.193 50.034 C 248.083 49.814 247.994 49.585 247.924 49.356 C 247.894 49.247 247.884 49.127 247.884 49.017 C 247.884 48.938 247.894 48.868 247.914 48.798 C 247.944 48.718 247.984 48.649 248.034 48.579 C 248.093 48.499 248.173 48.43 248.253 48.36 C 248.412 48.25 248.582 48.141 248.751 48.061 L 295.776 25.45 L 248.711 2.949 C 248.542 2.859 248.372 2.76 248.213 2.64 Z " fill="rgb(0,0,0)"/><path d=" M 249.189 51 L 111.771 51 L 113.218 43.408 L 125.867 48.061 L 250.086 48.061 L 249.189 51 Z " fill="rgb(0,0,0)"/></g></svg>